# xmcd
#
# Track frame offsets:
#	150
#	16736
#	36755
#	52706
#	77753
#	94743
#	111734
#	130848
#	156134
#
# Disc length: 2344 seconds
#
# Revision: 0
# Processed by: cddbd v1.5.2PL0 Copyright (c) Steve Scherf et al.
# Submitted via: EZCDAudioConverter 7.0.4.1
#
DISCID=66092609
DTITLE=Livin' Blues - Now - 25 Anniversary Remastered
DYEAR=1987
DGENRE=Blues
TTITLE0=Two trains
TTITLE1=Homework
TTITLE2=Hoodoman
TTITLE3=Ain't no use crying
TTITLE4=Livin'as a free man
TTITLE5=Havanna moon
TTITLE6=Let it happen
TTITLE7=Can't leave your love alone
TTITLE8=Parachute jump/ Jump jive
EXTD=
EXTT0=
EXTT1=
EXTT2=
EXTT3=
EXTT4=
EXTT5=
EXTT6=
EXTT7=
EXTT8=
PLAYORDER=
